<svg width="45" height="45" viewBox="0 0 45 45" fill="none" xmlns="http://www.w3.org/2000/svg">
<path d="M20.625 33.75C20.625 34.7855 21.4645 35.625 22.5 35.625C23.5355 35.625 24.375 34.7855 24.375 33.75C24.375 32.7145 23.5355 31.875 22.5 31.875C21.4645 31.875 20.625 32.7145 20.625 33.75Z" stroke="white" stroke-width="2" stroke-linecap="round" stroke-linejoin="round"/>
<path d="M20.625 22.5C20.625 23.5355 21.4645 24.375 22.5 24.375C23.5355 24.375 24.375 23.5355 24.375 22.5C24.375 21.4645 23.5355 20.625 22.5 20.625C21.4645 20.625 20.625 21.4645 20.625 22.5Z" stroke="white" stroke-width="2" stroke-linecap="round" stroke-linejoin="round"/>
<path d="M20.625 11.25C20.625 12.2855 21.4645 13.125 22.5 13.125C23.5355 13.125 24.375 12.2855 24.375 11.25C24.375 10.2145 23.5355 9.375 22.5 9.375C21.4645 9.375 20.625 10.2145 20.625 11.25Z" stroke="white" stroke-width="2" stroke-linecap="round" stroke-linejoin="round"/>
</svg>
