<svg width="46" height="45" viewBox="0 0 46 45" fill="none" xmlns="http://www.w3.org/2000/svg">
<path d="M21.3237 33.75C21.3237 34.7855 22.173 35.625 23.2207 35.625C24.2684 35.625 25.1177 34.7855 25.1177 33.75C25.1177 32.7145 24.2684 31.875 23.2207 31.875C22.173 31.875 21.3237 32.7145 21.3237 33.75Z" stroke="white" stroke-width="2" stroke-linecap="round" stroke-linejoin="round"/>
<path d="M21.3237 22.5C21.3237 23.5355 22.173 24.375 23.2207 24.375C24.2684 24.375 25.1177 23.5355 25.1177 22.5C25.1177 21.4645 24.2684 20.625 23.2207 20.625C22.173 20.625 21.3237 21.4645 21.3237 22.5Z" stroke="white" stroke-width="2" stroke-linecap="round" stroke-linejoin="round"/>
<path d="M21.3237 11.25C21.3237 12.2855 22.173 13.125 23.2207 13.125C24.2684 13.125 25.1177 12.2855 25.1177 11.25C25.1177 10.2145 24.2684 9.375 23.2207 9.375C22.173 9.375 21.3237 10.2145 21.3237 11.25Z" stroke="white" stroke-width="2" stroke-linecap="round" stroke-linejoin="round"/>
</svg>
